<svg width="595" height="842" viewBox="0 0 595 842" fill="none" xmlns="http://www.w3.org/2000/svg">
<rect width="595" height="842" fill="#EDEDED"/>
<rect width="595" height="357" fill="url(#paint0_linear_5790_30153)" fill-opacity="0.4"/>
<rect width="595" height="357" transform="matrix(1 0 0 -1 0 842)" fill="url(#paint1_linear_5790_30153)" fill-opacity="0.4"/>
<g opacity="0.2">
<path d="M107.407 11.0938C107.407 11.0938 121.413 59.1313 53.2241 83.4451C53.2241 83.4451 63.7273 106.831 60.3991 119.432C60.3991 119.432 144.899 86.7967 107.407 11.095V11.0938Z" fill="#184171"/>
<path d="M71.2725 114.984C71.2725 114.984 1.02387 136.371 -2.89435 206.851C-2.89435 206.851 -28.3582 124.776 66.542 80.1172C66.542 80.1172 75.0204 102.877 71.2725 114.984Z" fill="#184171"/>
<path d="M80.9807 27.5904C80.0749 29.0407 78.9651 30.4261 77.6447 31.6828C69.8213 39.1033 57.7378 39.3087 50.672 32.1207C43.5867 24.9574 44.1936 13.1326 52.0379 5.70942C57.5753 0.459136 65.2311 -1.19392 71.7498 0.849009L72.0656 0.945178C73.217 1.31816 74.3399 1.82499 75.4107 2.44749L72.0643 4.08106C67.5587 6.25655 64.775 11.0065 65.2857 16.0229L65.3143 16.2815C65.3208 16.5414 65.3286 16.8026 65.3546 17.0391C65.6665 19.6604 66.7958 21.997 66.9414 22.3284C66.9648 22.3479 66.9674 22.3687 66.9674 22.3687L67.0272 22.5142L67.0298 22.5363C68.9466 26.6794 73.373 28.8887 77.737 28.3844C78.4894 28.3013 79.2146 28.1557 79.9501 27.9218L80.9807 27.5904Z" fill="#F9A11B"/>
<path d="M82.7535 15.528C82.8171 16.1089 82.8392 16.6937 82.86 17.2798L82.8626 17.3019C82.8782 19.9998 82.2674 22.7458 81.0029 25.2813L79.2602 25.8661C78.6936 26.0598 78.0958 26.1689 77.4941 26.2352C73.9878 26.6238 70.4829 24.8563 68.9922 21.6243L68.9065 21.4385L68.9039 21.4164L68.8805 21.3969L68.8493 21.3137C68.6271 20.8809 67.7252 18.825 67.5003 16.8029C67.4769 16.5871 67.4717 16.3493 67.4691 16.131L67.434 15.8087C67.0273 11.7384 69.273 7.8319 72.9923 6.02679L76.3608 4.39062C77.0223 4.86107 77.6487 5.4017 78.2387 6.0112C80.8639 8.68183 82.3662 12.0217 82.7548 15.528H82.7535Z" fill="#F9A11B"/>
<path d="M82.7535 15.528C82.8171 16.1089 82.8392 16.6937 82.86 17.2798L82.8626 17.3019C82.8782 19.9998 82.2674 22.7458 81.0029 25.2813L79.2602 25.8661C78.6936 26.0598 78.0958 26.1689 77.4941 26.2352C73.9878 26.6238 70.4829 24.8563 68.9922 21.6243L68.9065 21.4385L68.9039 21.4164L68.8805 21.3969L68.8493 21.3137C68.6271 20.8809 67.7252 18.825 67.5003 16.8029C67.4769 16.5871 67.4717 16.3493 67.4691 16.131L67.434 15.8087C67.0273 11.7384 69.273 7.8319 72.9923 6.02679L76.3608 4.39062C77.0223 4.86107 77.6487 5.4017 78.2387 6.0112C80.8639 8.68183 82.3662 12.0217 82.7548 15.528H82.7535Z" fill="#184171"/>
<path d="M15.7549 7.28255C11.8471 14.9682 7.91069 23.4987 7.03218 32.1772C6.0315 42.1294 8.90617 52.0646 13.7133 60.7198C18.449 69.245 24.9559 76.6136 31.4525 83.8224C37.2915 90.3008 43.2345 96.7259 48.3184 103.829C65.5313 127.879 68.7166 154.519 61.3116 183.049C59.1374 191.427 53.019 199.025 48.6355 206.343C57.8625 196.29 68.6022 188.367 76.9676 177.222C86.1387 165.003 90.9913 150.7 91.9842 135.331C92.8224 122.344 90.1973 109.653 84.6208 98.1931C79.5966 87.8693 71.5275 79.3726 62.9646 71.8832C53.5271 63.6283 43.5308 55.9114 34.9432 46.7403C34.7261 46.5077 34.5091 46.275 34.2934 46.0411C34.0374 45.7643 33.784 45.4862 33.5292 45.2081C25.5251 36.4736 17.9616 26.5176 16.4931 14.4003C16.3047 12.846 15.4365 7.91024 15.7562 7.28125L15.7549 7.28255Z" fill="#F9A11B"/>
</g>
<g opacity="0.2">
<path d="M593.407 660.094C593.407 660.094 607.413 708.131 539.224 732.445C539.224 732.445 549.727 755.831 546.399 768.432C546.399 768.432 630.899 735.797 593.407 660.095V660.094Z" fill="#184171"/>
<path d="M557.272 763.984C557.272 763.984 487.024 785.371 483.106 855.851C483.106 855.851 457.642 773.776 552.542 729.117C552.542 729.117 561.02 751.877 557.272 763.984Z" fill="#184171"/>
<path d="M566.981 676.59C566.075 678.041 564.965 679.426 563.645 680.683C555.821 688.103 543.738 688.309 536.672 681.121C529.587 673.957 530.194 662.133 538.038 654.709C543.575 649.459 551.231 647.806 557.75 649.849L558.066 649.945C559.217 650.318 560.34 650.825 561.411 651.447L558.064 653.081C553.559 655.257 550.775 660.006 551.286 665.023L551.314 665.281C551.321 665.541 551.329 665.803 551.355 666.039C551.667 668.66 552.796 670.997 552.941 671.328C552.965 671.348 552.967 671.369 552.967 671.369L553.027 671.514L553.03 671.536C554.947 675.679 559.373 677.889 563.737 677.384C564.489 677.301 565.215 677.156 565.95 676.922L566.981 676.59Z" fill="#F9A11B"/>
<path d="M568.753 664.528C568.817 665.109 568.839 665.694 568.86 666.28L568.863 666.302C568.878 669 568.267 671.746 567.003 674.281L565.26 674.866C564.694 675.06 564.096 675.169 563.494 675.235C559.988 675.624 556.483 673.856 554.992 670.624L554.906 670.438L554.904 670.416L554.88 670.397L554.849 670.314C554.627 669.881 553.725 667.825 553.5 665.803C553.477 665.587 553.472 665.349 553.469 665.131L553.434 664.809C553.027 660.738 555.273 656.832 558.992 655.027L562.361 653.391C563.022 653.861 563.649 654.402 564.239 655.011C566.864 657.682 568.366 661.022 568.755 664.528H568.753Z" fill="#F9A11B"/>
<path d="M568.753 664.528C568.817 665.109 568.839 665.694 568.86 666.28L568.863 666.302C568.878 669 568.267 671.746 567.003 674.281L565.26 674.866C564.694 675.06 564.096 675.169 563.494 675.235C559.988 675.624 556.483 673.856 554.992 670.624L554.906 670.438L554.904 670.416L554.88 670.397L554.849 670.314C554.627 669.881 553.725 667.825 553.5 665.803C553.477 665.587 553.472 665.349 553.469 665.131L553.434 664.809C553.027 660.738 555.273 656.832 558.992 655.027L562.361 653.391C563.022 653.861 563.649 654.402 564.239 655.011C566.864 657.682 568.366 661.022 568.755 664.528H568.753Z" fill="#184171"/>
<path d="M501.755 656.283C497.847 663.968 493.911 672.499 493.032 681.177C492.032 691.129 494.906 701.065 499.713 709.72C504.449 718.245 510.956 725.614 517.453 732.822C523.292 739.301 529.234 745.726 534.318 752.829C551.531 776.879 554.717 803.519 547.312 832.049C545.137 840.427 539.019 848.025 534.636 855.343C543.862 845.29 554.602 837.367 562.968 826.222C572.139 814.003 576.991 799.7 577.984 784.331C578.822 771.344 576.197 758.653 570.621 747.193C565.597 736.869 557.528 728.373 548.965 720.883C539.527 712.628 529.531 704.911 520.943 695.74C520.726 695.508 520.509 695.275 520.293 695.041C520.037 694.764 519.784 694.486 519.529 694.208C511.525 685.474 503.962 675.518 502.493 663.4C502.305 661.846 501.437 656.91 501.756 656.281L501.755 656.283Z" fill="#F9A11B"/>
</g>
<path d="M463.849 95V88.11H468.069V88.95H464.809V91.44H467.549V92.27H464.809V95H463.849ZM470.377 95.1C469.944 95.1 469.611 95.0133 469.377 94.84C469.151 94.66 468.994 94.3867 468.907 94.02C468.821 93.6533 468.777 93.18 468.777 92.6V89.99H469.707V92.59C469.707 93.0033 469.727 93.3333 469.767 93.58C469.807 93.8267 469.894 94.0033 470.027 94.11C470.167 94.2167 470.374 94.27 470.647 94.27C470.914 94.27 471.157 94.2333 471.377 94.16C471.604 94.0867 471.787 94.0167 471.927 93.95V89.99H472.847V95H471.927V94.66C471.714 94.78 471.484 94.8833 471.237 94.97C470.997 95.0567 470.711 95.1 470.377 95.1ZM475.878 95.11C475.525 95.11 475.242 95.0567 475.028 94.95C474.822 94.8433 474.672 94.66 474.578 94.4C474.492 94.1333 474.448 93.76 474.448 93.28V90.78H473.768V89.99H474.448V88.52H475.368V89.99H476.858V90.78H475.368V93.02C475.368 93.3467 475.382 93.6033 475.408 93.79C475.442 93.97 475.505 94.0967 475.598 94.17C475.692 94.2433 475.838 94.28 476.038 94.28C476.105 94.28 476.188 94.28 476.288 94.28C476.388 94.2733 476.492 94.2667 476.598 94.26C476.705 94.2467 476.798 94.2367 476.878 94.23L476.928 94.99C476.828 95.01 476.712 95.0267 476.578 95.04C476.452 95.06 476.325 95.0767 476.198 95.09C476.072 95.1033 475.965 95.11 475.878 95.11ZM479.274 95.1C478.84 95.1 478.507 95.0133 478.274 94.84C478.047 94.66 477.89 94.3867 477.804 94.02C477.717 93.6533 477.674 93.18 477.674 92.6V89.99H478.604V92.59C478.604 93.0033 478.624 93.3333 478.664 93.58C478.704 93.8267 478.79 94.0033 478.924 94.11C479.064 94.2167 479.27 94.27 479.544 94.27C479.81 94.27 480.054 94.2333 480.274 94.16C480.5 94.0867 480.684 94.0167 480.824 93.95V89.99H481.744V95H480.824V94.66C480.61 94.78 480.38 94.8833 480.134 94.97C479.894 95.0567 479.607 95.1 479.274 95.1ZM483.095 95V89.99H484.025V90.64C484.145 90.5533 484.298 90.46 484.485 90.36C484.671 90.26 484.875 90.1667 485.095 90.08C485.321 89.9867 485.545 89.92 485.765 89.88V90.81C485.551 90.85 485.331 90.9067 485.105 90.98C484.885 91.0533 484.678 91.1333 484.485 91.22C484.298 91.3 484.145 91.3733 484.025 91.44V95H483.095ZM488.333 95.1C487.82 95.1 487.413 95.0067 487.113 94.82C486.82 94.6267 486.607 94.34 486.473 93.96C486.34 93.58 486.273 93.1033 486.273 92.53C486.273 91.9033 486.36 91.3967 486.533 91.01C486.713 90.6233 486.963 90.34 487.283 90.16C487.603 89.98 487.987 89.89 488.433 89.89C489.12 89.89 489.637 90.0767 489.983 90.45C490.337 90.8167 490.513 91.41 490.513 92.23L490.463 92.86H487.223C487.23 93.34 487.32 93.7033 487.493 93.95C487.667 94.19 487.98 94.31 488.433 94.31C488.627 94.31 488.837 94.3067 489.063 94.3C489.297 94.2867 489.527 94.2733 489.753 94.26C489.98 94.2467 490.173 94.2333 490.333 94.22L490.353 94.92C490.187 94.9467 489.987 94.9733 489.753 95C489.52 95.0333 489.277 95.0567 489.023 95.07C488.777 95.09 488.547 95.1 488.333 95.1ZM487.223 92.17H489.583C489.583 91.6033 489.49 91.2067 489.303 90.98C489.123 90.7533 488.833 90.64 488.433 90.64C488.173 90.64 487.953 90.69 487.773 90.79C487.593 90.89 487.457 91.0533 487.363 91.28C487.27 91.5 487.223 91.7967 487.223 92.17ZM493.888 95V88.11H496.428C496.955 88.11 497.388 88.1933 497.728 88.36C498.068 88.52 498.322 88.7667 498.488 89.1C498.655 89.4333 498.738 89.8633 498.738 90.39C498.738 90.91 498.655 91.3467 498.488 91.7C498.322 92.0533 498.068 92.32 497.728 92.5C497.388 92.68 496.955 92.77 496.428 92.77H494.848V95H493.888ZM494.848 91.96H496.418C496.892 91.96 497.232 91.8267 497.438 91.56C497.652 91.2867 497.758 90.8967 497.758 90.39C497.758 89.8833 497.652 89.5133 497.438 89.28C497.232 89.0467 496.892 88.93 496.418 88.93H494.848V91.96ZM499.716 95V89.99H500.646V95H499.716ZM499.716 88.98V88.01H500.646V88.98H499.716ZM503.972 95.1C503.412 95.1 502.972 95.0067 502.652 94.82C502.332 94.6267 502.105 94.3333 501.972 93.94C501.838 93.5467 501.772 93.0467 501.772 92.44C501.772 91.86 501.842 91.3833 501.982 91.01C502.128 90.6367 502.362 90.3567 502.682 90.17C503.008 89.9833 503.438 89.89 503.972 89.89C504.512 89.89 504.942 89.9833 505.262 90.17C505.582 90.3567 505.812 90.6367 505.952 91.01C506.098 91.3833 506.172 91.86 506.172 92.44C506.172 93.0467 506.105 93.5467 505.972 93.94C505.845 94.3333 505.622 94.6267 505.302 94.82C504.982 95.0067 504.538 95.1 503.972 95.1ZM503.972 94.31C504.325 94.31 504.592 94.2467 504.772 94.12C504.952 93.9933 505.072 93.7933 505.132 93.52C505.192 93.24 505.222 92.88 505.222 92.44C505.222 92.0067 505.185 91.6633 505.112 91.41C505.038 91.15 504.912 90.9633 504.732 90.85C504.552 90.7367 504.298 90.68 503.972 90.68C503.652 90.68 503.398 90.7367 503.212 90.85C503.032 90.9633 502.905 91.15 502.832 91.41C502.758 91.6633 502.722 92.0067 502.722 92.44C502.722 92.88 502.752 93.24 502.812 93.52C502.872 93.7933 502.988 93.9933 503.162 94.12C503.342 94.2467 503.612 94.31 503.972 94.31ZM507.314 95V89.99H508.244V90.34C508.35 90.2733 508.487 90.2067 508.654 90.14C508.82 90.0733 508.997 90.0167 509.184 89.97C509.37 89.9167 509.55 89.89 509.724 89.89C510.07 89.89 510.354 89.9367 510.574 90.03C510.8 90.1167 510.977 90.26 511.104 90.46C511.23 90.6533 511.32 90.9067 511.374 91.22C511.427 91.5333 511.454 91.9133 511.454 92.36V95H510.514V92.41C510.514 91.9967 510.49 91.6667 510.444 91.42C510.397 91.1733 510.304 90.9967 510.164 90.89C510.024 90.7767 509.814 90.72 509.534 90.72C509.38 90.72 509.22 90.7367 509.054 90.77C508.894 90.8033 508.74 90.8467 508.594 90.9C508.454 90.9533 508.337 91.0033 508.244 91.05V95H507.314ZM514.573 95.1C514.06 95.1 513.653 95.0067 513.353 94.82C513.06 94.6267 512.847 94.34 512.713 93.96C512.58 93.58 512.513 93.1033 512.513 92.53C512.513 91.9033 512.6 91.3967 512.773 91.01C512.953 90.6233 513.203 90.34 513.523 90.16C513.843 89.98 514.227 89.89 514.673 89.89C515.36 89.89 515.877 90.0767 516.223 90.45C516.577 90.8167 516.753 91.41 516.753 92.23L516.703 92.86H513.463C513.47 93.34 513.56 93.7033 513.733 93.95C513.907 94.19 514.22 94.31 514.673 94.31C514.867 94.31 515.077 94.3067 515.303 94.3C515.537 94.2867 515.767 94.2733 515.993 94.26C516.22 94.2467 516.413 94.2333 516.573 94.22L516.593 94.92C516.427 94.9467 516.227 94.9733 515.993 95C515.76 95.0333 515.517 95.0567 515.263 95.07C515.017 95.09 514.787 95.1 514.573 95.1ZM513.463 92.17H515.823C515.823 91.6033 515.73 91.2067 515.543 90.98C515.363 90.7533 515.073 90.64 514.673 90.64C514.413 90.64 514.193 90.69 514.013 90.79C513.833 90.89 513.697 91.0533 513.603 91.28C513.51 91.5 513.463 91.7967 513.463 92.17ZM519.671 95.1C519.158 95.1 518.751 95.0067 518.451 94.82C518.158 94.6267 517.944 94.34 517.811 93.96C517.678 93.58 517.611 93.1033 517.611 92.53C517.611 91.9033 517.698 91.3967 517.871 91.01C518.051 90.6233 518.301 90.34 518.621 90.16C518.941 89.98 519.324 89.89 519.771 89.89C520.458 89.89 520.974 90.0767 521.321 90.45C521.674 90.8167 521.851 91.41 521.851 92.23L521.801 92.86H518.561C518.568 93.34 518.658 93.7033 518.831 93.95C519.004 94.19 519.318 94.31 519.771 94.31C519.964 94.31 520.174 94.3067 520.401 94.3C520.634 94.2867 520.864 94.2733 521.091 94.26C521.318 94.2467 521.511 94.2333 521.671 94.22L521.691 94.92C521.524 94.9467 521.324 94.9733 521.091 95C520.858 95.0333 520.614 95.0567 520.361 95.07C520.114 95.09 519.884 95.1 519.671 95.1ZM518.561 92.17H520.921C520.921 91.6033 520.828 91.2067 520.641 90.98C520.461 90.7533 520.171 90.64 519.771 90.64C519.511 90.64 519.291 90.69 519.111 90.79C518.931 90.89 518.794 91.0533 518.701 91.28C518.608 91.5 518.561 91.7967 518.561 92.17ZM522.929 95V89.99H523.859V90.64C523.979 90.5533 524.132 90.46 524.319 90.36C524.505 90.26 524.709 90.1667 524.929 90.08C525.155 89.9867 525.379 89.92 525.599 89.88V90.81C525.385 90.85 525.165 90.9067 524.939 90.98C524.719 91.0533 524.512 91.1333 524.319 91.22C524.132 91.3 523.979 91.3733 523.859 91.44V95H522.929ZM528.045 95.1C527.872 95.1 527.672 95.09 527.445 95.07C527.225 95.05 527.005 95.0267 526.785 95C526.572 94.9667 526.385 94.9333 526.225 94.9L526.265 94.15C526.432 94.17 526.622 94.1933 526.835 94.22C527.048 94.2467 527.255 94.27 527.455 94.29C527.662 94.3033 527.825 94.31 527.945 94.31C528.198 94.31 528.408 94.2867 528.575 94.24C528.742 94.1933 528.868 94.1167 528.955 94.01C529.042 93.8967 529.085 93.7433 529.085 93.55C529.085 93.3967 529.052 93.28 528.985 93.2C528.918 93.1133 528.795 93.0433 528.615 92.99C528.435 92.93 528.172 92.8733 527.825 92.82C527.452 92.76 527.142 92.6867 526.895 92.6C526.648 92.5067 526.465 92.3667 526.345 92.18C526.225 91.9933 526.165 91.7333 526.165 91.4C526.165 91.0133 526.252 90.7133 526.425 90.5C526.605 90.28 526.835 90.1233 527.115 90.03C527.402 89.9367 527.702 89.89 528.015 89.89C528.215 89.89 528.428 89.9 528.655 89.92C528.888 89.94 529.112 89.9667 529.325 90C529.538 90.0333 529.722 90.0633 529.875 90.09L529.845 90.85C529.685 90.8233 529.498 90.8 529.285 90.78C529.072 90.7533 528.858 90.7333 528.645 90.72C528.432 90.7067 528.245 90.7 528.085 90.7C527.898 90.7 527.728 90.72 527.575 90.76C527.428 90.7933 527.312 90.86 527.225 90.96C527.145 91.0533 527.105 91.19 527.105 91.37C527.105 91.5033 527.135 91.61 527.195 91.69C527.255 91.77 527.375 91.84 527.555 91.9C527.735 91.9533 527.992 92.0067 528.325 92.06C528.738 92.1267 529.068 92.21 529.315 92.31C529.562 92.41 529.742 92.5533 529.855 92.74C529.968 92.9267 530.025 93.1833 530.025 93.51C530.025 93.9033 529.945 94.2167 529.785 94.45C529.632 94.6833 529.408 94.85 529.115 94.95C528.822 95.05 528.465 95.1 528.045 95.1ZM535.37 95.1C535.157 95.1 534.91 95.0867 534.63 95.06C534.357 95.0333 534.087 95 533.82 94.96C533.554 94.92 533.32 94.8867 533.12 94.86L533.2 94.08C533.394 94.1 533.62 94.1267 533.88 94.16C534.147 94.1867 534.407 94.21 534.66 94.23C534.914 94.25 535.13 94.26 535.31 94.26C535.617 94.26 535.87 94.2167 536.07 94.13C536.27 94.0367 536.42 93.9 536.52 93.72C536.62 93.54 536.67 93.3067 536.67 93.02C536.67 92.7867 536.624 92.6033 536.53 92.47C536.444 92.33 536.294 92.22 536.08 92.14C535.867 92.0533 535.58 91.9767 535.22 91.91C534.854 91.8367 534.534 91.7533 534.26 91.66C533.987 91.56 533.76 91.4367 533.58 91.29C533.4 91.1433 533.267 90.96 533.18 90.74C533.1 90.5133 533.06 90.2367 533.06 89.91C533.06 89.4433 533.15 89.07 533.33 88.79C533.517 88.51 533.78 88.3067 534.12 88.18C534.467 88.0533 534.87 87.99 535.33 87.99C535.537 87.99 535.77 88.0033 536.03 88.03C536.297 88.05 536.557 88.0767 536.81 88.11C537.07 88.1433 537.294 88.1767 537.48 88.21L537.41 89C537.217 88.9733 536.99 88.95 536.73 88.93C536.477 88.9033 536.23 88.88 535.99 88.86C535.75 88.84 535.557 88.83 535.41 88.83C535.104 88.83 534.847 88.8667 534.64 88.94C534.44 89.0133 534.287 89.1233 534.18 89.27C534.08 89.4167 534.03 89.6067 534.03 89.84C534.03 90.1067 534.08 90.31 534.18 90.45C534.28 90.59 534.447 90.7 534.68 90.78C534.914 90.86 535.22 90.9467 535.6 91.04C535.96 91.12 536.267 91.2067 536.52 91.3C536.78 91.3933 536.994 91.51 537.16 91.65C537.327 91.79 537.447 91.9633 537.52 92.17C537.6 92.3767 537.64 92.6367 537.64 92.95C537.64 93.4633 537.547 93.8767 537.36 94.19C537.18 94.5033 536.92 94.7333 536.58 94.88C536.24 95.0267 535.837 95.1 535.37 95.1ZM540.649 95.1C540.109 95.1 539.686 95.0133 539.379 94.84C539.073 94.66 538.856 94.3733 538.729 93.98C538.603 93.5867 538.539 93.07 538.539 92.43C538.539 91.81 538.609 91.3167 538.749 90.95C538.889 90.5767 539.116 90.3067 539.429 90.14C539.743 89.9733 540.153 89.89 540.659 89.89C540.779 89.89 540.923 89.9 541.089 89.92C541.263 89.9333 541.436 89.9533 541.609 89.98C541.789 90.0067 541.943 90.03 542.069 90.05L542.039 90.81C541.926 90.7967 541.793 90.7833 541.639 90.77C541.486 90.7567 541.339 90.7467 541.199 90.74C541.059 90.7267 540.943 90.72 540.849 90.72C540.489 90.72 540.209 90.7767 540.009 90.89C539.816 91.0033 539.679 91.1833 539.599 91.43C539.526 91.6767 539.489 92.01 539.489 92.43C539.489 92.8833 539.523 93.2467 539.589 93.52C539.663 93.7867 539.796 93.98 539.989 94.1C540.183 94.2133 540.469 94.27 540.849 94.27C540.943 94.27 541.059 94.2667 541.199 94.26C541.346 94.2467 541.496 94.2333 541.649 94.22C541.809 94.2067 541.946 94.1967 542.059 94.19L542.089 94.95C541.956 94.97 541.799 94.99 541.619 95.01C541.446 95.0367 541.273 95.0567 541.099 95.07C540.926 95.09 540.776 95.1 540.649 95.1ZM543.134 95V87.86H544.064V90.24C544.184 90.1867 544.324 90.1367 544.484 90.09C544.651 90.0367 544.827 89.99 545.014 89.95C545.201 89.91 545.377 89.89 545.544 89.89C545.891 89.89 546.174 89.9367 546.394 90.03C546.621 90.1167 546.797 90.26 546.924 90.46C547.051 90.6533 547.137 90.9067 547.184 91.22C547.237 91.5333 547.264 91.91 547.264 92.35V95H546.324V92.41C546.324 91.9967 546.301 91.6667 546.254 91.42C546.207 91.1733 546.114 90.9967 545.974 90.89C545.841 90.7767 545.634 90.72 545.354 90.72C545.201 90.72 545.041 90.7333 544.874 90.76C544.714 90.7867 544.561 90.8233 544.414 90.87C544.274 90.91 544.157 90.95 544.064 90.99V95H543.134ZM550.544 95.1C549.984 95.1 549.544 95.0067 549.224 94.82C548.904 94.6267 548.677 94.3333 548.544 93.94C548.41 93.5467 548.344 93.0467 548.344 92.44C548.344 91.86 548.414 91.3833 548.554 91.01C548.7 90.6367 548.934 90.3567 549.254 90.17C549.58 89.9833 550.01 89.89 550.544 89.89C551.084 89.89 551.514 89.9833 551.834 90.17C552.154 90.3567 552.384 90.6367 552.524 91.01C552.67 91.3833 552.744 91.86 552.744 92.44C552.744 93.0467 552.677 93.5467 552.544 93.94C552.417 94.3333 552.194 94.6267 551.874 94.82C551.554 95.0067 551.11 95.1 550.544 95.1ZM550.544 94.31C550.897 94.31 551.164 94.2467 551.344 94.12C551.524 93.9933 551.644 93.7933 551.704 93.52C551.764 93.24 551.794 92.88 551.794 92.44C551.794 92.0067 551.757 91.6633 551.684 91.41C551.61 91.15 551.484 90.9633 551.304 90.85C551.124 90.7367 550.87 90.68 550.544 90.68C550.224 90.68 549.97 90.7367 549.784 90.85C549.604 90.9633 549.477 91.15 549.404 91.41C549.33 91.6633 549.294 92.0067 549.294 92.44C549.294 92.88 549.324 93.24 549.384 93.52C549.444 93.7933 549.56 93.9933 549.734 94.12C549.914 94.2467 550.184 94.31 550.544 94.31ZM555.876 95.1C555.316 95.1 554.876 95.0067 554.556 94.82C554.236 94.6267 554.009 94.3333 553.876 93.94C553.742 93.5467 553.676 93.0467 553.676 92.44C553.676 91.86 553.746 91.3833 553.886 91.01C554.032 90.6367 554.266 90.3567 554.586 90.17C554.912 89.9833 555.342 89.89 555.876 89.89C556.416 89.89 556.846 89.9833 557.166 90.17C557.486 90.3567 557.716 90.6367 557.856 91.01C558.002 91.3833 558.076 91.86 558.076 92.44C558.076 93.0467 558.009 93.5467 557.876 93.94C557.749 94.3333 557.526 94.6267 557.206 94.82C556.886 95.0067 556.442 95.1 555.876 95.1ZM555.876 94.31C556.229 94.31 556.496 94.2467 556.676 94.12C556.856 93.9933 556.976 93.7933 557.036 93.52C557.096 93.24 557.126 92.88 557.126 92.44C557.126 92.0067 557.089 91.6633 557.016 91.41C556.942 91.15 556.816 90.9633 556.636 90.85C556.456 90.7367 556.202 90.68 555.876 90.68C555.556 90.68 555.302 90.7367 555.116 90.85C554.936 90.9633 554.809 91.15 554.736 91.41C554.662 91.6633 554.626 92.0067 554.626 92.44C554.626 92.88 554.656 93.24 554.716 93.52C554.776 93.7933 554.892 93.9933 555.066 94.12C555.246 94.2467 555.516 94.31 555.876 94.31ZM559.278 95V87.86H560.198V95H559.278Z" fill="#184171"/>
<path d="M460.079 83C459.739 83 459.459 82.946 459.239 82.838C459.019 82.73 458.855 82.566 458.747 82.346C458.643 82.126 458.591 81.848 458.591 81.512C458.591 81.176 458.643 80.896 458.747 80.672C458.855 80.444 459.019 80.274 459.239 80.162C459.459 80.046 459.739 79.988 460.079 79.988H461.435V82.622H460.631V80.51L460.829 80.684H460.079C459.915 80.684 459.783 80.704 459.683 80.744C459.583 80.78 459.509 80.858 459.461 80.978C459.417 81.094 459.395 81.272 459.395 81.512C459.395 81.74 459.415 81.912 459.455 82.028C459.499 82.14 459.571 82.214 459.671 82.25C459.771 82.286 459.907 82.304 460.079 82.304H462.065V83H460.079ZM462.065 83V82.304C462.089 82.304 462.107 82.312 462.119 82.328C462.135 82.344 462.147 82.368 462.155 82.4C462.167 82.432 462.175 82.47 462.179 82.514C462.183 82.554 462.185 82.6 462.185 82.652C462.185 82.704 462.183 82.752 462.179 82.796C462.175 82.84 462.167 82.878 462.155 82.91C462.147 82.938 462.135 82.96 462.119 82.976C462.107 82.992 462.089 83 462.065 83ZM459.185 79.436V78.752H459.959V79.436H459.185ZM460.277 79.436V78.752H461.051V79.436H460.277ZM462.065 83V82.304H466.601L465.923 82.892V81.632C465.923 81.404 465.893 81.222 465.833 81.086C465.773 80.946 465.685 80.844 465.569 80.78C465.457 80.716 465.321 80.684 465.161 80.684C464.989 80.684 464.825 80.718 464.669 80.786C464.517 80.854 464.375 80.942 464.243 81.05C464.111 81.158 463.989 81.274 463.877 81.398C463.765 81.522 463.665 81.642 463.577 81.758C463.489 81.87 463.413 81.966 463.349 82.046L463.169 81.464C463.325 81.276 463.465 81.104 463.589 80.948C463.713 80.792 463.831 80.654 463.943 80.534C464.059 80.414 464.179 80.314 464.303 80.234C464.431 80.154 464.569 80.094 464.717 80.054C464.869 80.01 465.045 79.988 465.245 79.988C465.513 79.988 465.741 80.034 465.929 80.126C466.117 80.214 466.269 80.336 466.385 80.492C466.505 80.648 466.591 80.824 466.643 81.02C466.699 81.216 466.727 81.42 466.727 81.632V83H462.065ZM462.821 82.304V79.988H463.625V82.304H462.821ZM462.065 83C462.041 83 462.023 82.992 462.011 82.976C461.995 82.96 461.983 82.938 461.975 82.91C461.963 82.878 461.955 82.84 461.951 82.796C461.947 82.752 461.945 82.704 461.945 82.652C461.945 82.58 461.949 82.52 461.957 82.472C461.965 82.42 461.979 82.38 461.999 82.352C462.015 82.32 462.037 82.304 462.065 82.304V83ZM468.478 83V82.304H469.162V83H468.478ZM467.68 83V78.758H468.478V83H467.68ZM469.162 83V82.304C469.186 82.304 469.204 82.312 469.216 82.328C469.232 82.344 469.244 82.368 469.252 82.4C469.264 82.432 469.272 82.47 469.276 82.514C469.28 82.554 469.282 82.6 469.282 82.652C469.282 82.704 469.28 82.752 469.276 82.796C469.272 82.84 469.264 82.878 469.252 82.91C469.244 82.938 469.232 82.96 469.216 82.976C469.204 82.992 469.186 83 469.162 83ZM472.269 83V82.304H472.905V83H472.269ZM469.161 83C469.137 83 469.119 82.992 469.107 82.976C469.091 82.96 469.079 82.938 469.071 82.91C469.059 82.878 469.051 82.84 469.047 82.796C469.043 82.752 469.041 82.704 469.041 82.652C469.041 82.58 469.045 82.52 469.053 82.472C469.061 82.42 469.075 82.38 469.095 82.352C469.111 82.32 469.133 82.304 469.161 82.304V83ZM469.161 83V82.304H471.741L471.471 82.526V81.416C471.471 81.176 471.395 80.994 471.243 80.87C471.095 80.746 470.859 80.684 470.535 80.684C470.443 80.684 470.317 80.692 470.157 80.708C469.997 80.72 469.823 80.74 469.635 80.768L469.557 80.132C469.729 80.092 469.903 80.058 470.079 80.03C470.259 80.002 470.435 79.988 470.607 79.988C470.935 79.988 471.223 80.046 471.471 80.162C471.719 80.274 471.913 80.436 472.053 80.648C472.197 80.86 472.269 81.116 472.269 81.416V83H469.161ZM472.905 83V82.304C472.925 82.304 472.943 82.312 472.959 82.328C472.975 82.344 472.987 82.368 472.995 82.4C473.003 82.432 473.009 82.47 473.013 82.514C473.021 82.554 473.025 82.6 473.025 82.652C473.025 82.704 473.021 82.752 473.013 82.796C473.009 82.84 473.003 82.878 472.995 82.91C472.987 82.938 472.975 82.96 472.959 82.976C472.943 82.992 472.925 83 472.905 83ZM470.199 79.514V78.83H471.003V79.514H470.199ZM473.583 83V78.758H474.387V83H473.583ZM472.905 83V82.304H473.583V83H472.905ZM472.905 83C472.881 83 472.863 82.992 472.851 82.976C472.835 82.96 472.823 82.938 472.815 82.91C472.803 82.878 472.795 82.84 472.791 82.796C472.787 82.752 472.785 82.704 472.785 82.652C472.785 82.58 472.789 82.52 472.797 82.472C472.805 82.42 472.819 82.38 472.839 82.352C472.855 82.32 472.877 82.304 472.905 82.304V83ZM475.35 83V78.758H476.148V83H475.35ZM479.725 83C479.385 83 479.105 82.946 478.885 82.838C478.665 82.73 478.501 82.566 478.393 82.346C478.289 82.126 478.237 81.848 478.237 81.512C478.237 81.176 478.289 80.896 478.393 80.672C478.501 80.444 478.665 80.274 478.885 80.162C479.105 80.046 479.385 79.988 479.725 79.988H481.081V82.622H480.277V80.51L480.475 80.684H479.725C479.561 80.684 479.429 80.704 479.329 80.744C479.229 80.78 479.155 80.858 479.107 80.978C479.063 81.094 479.041 81.272 479.041 81.512C479.041 81.74 479.061 81.912 479.101 82.028C479.145 82.14 479.217 82.214 479.317 82.25C479.417 82.286 479.553 82.304 479.725 82.304H481.711V83H479.725ZM481.711 83V82.304C481.735 82.304 481.753 82.312 481.765 82.328C481.781 82.344 481.793 82.368 481.801 82.4C481.813 82.432 481.821 82.47 481.825 82.514C481.829 82.554 481.831 82.6 481.831 82.652C481.831 82.704 481.829 82.752 481.825 82.796C481.821 82.84 481.813 82.878 481.801 82.91C481.793 82.938 481.781 82.96 481.765 82.976C481.753 82.992 481.735 83 481.711 83ZM478.831 79.436V78.752H479.605V79.436H478.831ZM479.923 79.436V78.752H480.697V79.436H479.923ZM483.464 83V82.304H484.214V83H483.464ZM484.214 83V82.304C484.234 82.304 484.252 82.312 484.268 82.328C484.284 82.344 484.296 82.368 484.304 82.4C484.312 82.432 484.318 82.47 484.322 82.514C484.33 82.554 484.334 82.6 484.334 82.652C484.334 82.704 484.33 82.752 484.322 82.796C484.318 82.84 484.312 82.878 484.304 82.91C484.296 82.938 484.284 82.96 484.268 82.976C484.256 82.992 484.238 83 484.214 83ZM481.712 83C481.688 83 481.67 82.992 481.658 82.976C481.642 82.96 481.63 82.938 481.622 82.91C481.61 82.878 481.602 82.84 481.598 82.796C481.594 82.752 481.592 82.704 481.592 82.652C481.592 82.58 481.596 82.52 481.604 82.472C481.612 82.42 481.626 82.38 481.646 82.352C481.662 82.32 481.684 82.304 481.712 82.304V83ZM481.712 83V82.304H483.134L482.666 82.694V79.988H483.464V83H481.712ZM481.928 84.278V83.594H482.702V84.278H481.928ZM483.02 84.278V83.594H483.794V84.278H483.02ZM487.76 83V82.304H488.396V83H487.76ZM484.214 83C484.19 83 484.172 82.992 484.16 82.976C484.144 82.96 484.132 82.938 484.124 82.91C484.112 82.878 484.104 82.84 484.1 82.796C484.096 82.752 484.094 82.704 484.094 82.652C484.094 82.58 484.098 82.52 484.106 82.472C484.114 82.42 484.128 82.38 484.148 82.352C484.164 82.32 484.186 82.304 484.214 82.304V83ZM484.214 83V82.304H487.328L486.962 82.616V81.512C486.962 81.296 486.938 81.128 486.89 81.008C486.842 80.884 486.758 80.798 486.638 80.75C486.522 80.698 486.36 80.672 486.152 80.672C485.988 80.672 485.826 80.684 485.666 80.708C485.51 80.728 485.388 80.756 485.3 80.792L485.798 80.324C485.774 80.416 485.75 80.532 485.726 80.672C485.706 80.812 485.688 80.962 485.672 81.122C485.656 81.278 485.648 81.432 485.648 81.584C485.648 81.724 485.654 81.87 485.666 82.022C485.682 82.174 485.698 82.308 485.714 82.424C485.734 82.54 485.75 82.62 485.762 82.664L485 82.874C484.984 82.818 484.964 82.726 484.94 82.598C484.916 82.47 484.894 82.318 484.874 82.142C484.858 81.966 484.85 81.78 484.85 81.584C484.85 81.384 484.86 81.192 484.88 81.008C484.9 80.82 484.922 80.652 484.946 80.504C484.974 80.352 485 80.23 485.024 80.138C485.12 80.102 485.27 80.066 485.474 80.03C485.678 79.994 485.904 79.976 486.152 79.976C486.512 79.976 486.81 80.026 487.046 80.126C487.286 80.226 487.464 80.388 487.58 80.612C487.7 80.836 487.76 81.138 487.76 81.518V83H484.214ZM488.396 83V82.304C488.416 82.304 488.434 82.312 488.45 82.328C488.466 82.344 488.478 82.368 488.486 82.4C488.494 82.432 488.5 82.47 488.504 82.514C488.512 82.554 488.516 82.6 488.516 82.652C488.516 82.704 488.512 82.752 488.504 82.796C488.5 82.84 488.494 82.878 488.486 82.91C488.478 82.938 488.466 82.96 488.45 82.976C488.434 82.992 488.416 83 488.396 83ZM490.149 83V82.304H490.899V83H490.149ZM490.899 83V82.304C490.919 82.304 490.937 82.312 490.953 82.328C490.969 82.344 490.981 82.368 490.989 82.4C490.997 82.432 491.003 82.47 491.007 82.514C491.015 82.554 491.019 82.6 491.019 82.652C491.019 82.704 491.015 82.752 491.007 82.796C491.003 82.84 490.997 82.878 490.989 82.91C490.981 82.938 490.969 82.96 490.953 82.976C490.941 82.992 490.923 83 490.899 83ZM488.397 83C488.373 83 488.355 82.992 488.343 82.976C488.327 82.96 488.315 82.938 488.307 82.91C488.295 82.878 488.287 82.84 488.283 82.796C488.279 82.752 488.277 82.704 488.277 82.652C488.277 82.58 488.281 82.52 488.289 82.472C488.297 82.42 488.311 82.38 488.331 82.352C488.347 82.32 488.369 82.304 488.397 82.304V83ZM488.397 83V82.304H489.819L489.351 82.694V79.988H490.149V83H488.397ZM488.613 84.278V83.594H489.387V84.278H488.613ZM489.705 84.278V83.594H490.479V84.278H489.705ZM492.381 83V82.304H493.011V83H492.381ZM490.899 83C490.875 83 490.857 82.992 490.845 82.976C490.829 82.96 490.817 82.938 490.809 82.91C490.797 82.878 490.789 82.84 490.785 82.796C490.781 82.752 490.779 82.704 490.779 82.652C490.779 82.58 490.783 82.52 490.791 82.472C490.799 82.42 490.813 82.38 490.833 82.352C490.849 82.32 490.871 82.304 490.899 82.304V83ZM491.577 83V78.758H492.381V83H491.577ZM490.899 83V82.304H491.577V83H490.899ZM493.011 83V82.304C493.035 82.304 493.055 82.312 493.071 82.328C493.087 82.344 493.099 82.368 493.107 82.4C493.115 82.432 493.121 82.47 493.125 82.514C493.129 82.554 493.131 82.6 493.131 82.652C493.131 82.704 493.129 82.752 493.125 82.796C493.121 82.84 493.115 82.878 493.107 82.91C493.099 82.938 493.087 82.96 493.071 82.976C493.055 82.992 493.035 83 493.011 83ZM493.009 83V82.304H494.281C494.453 82.304 494.619 82.272 494.779 82.208C494.939 82.14 495.085 82.052 495.217 81.944C495.353 81.832 495.471 81.71 495.571 81.578C495.675 81.442 495.755 81.304 495.811 81.164C495.871 81.024 495.901 80.892 495.901 80.768V80.384L496.285 81.02C496.077 80.908 495.865 80.824 495.649 80.768C495.433 80.712 495.227 80.684 495.031 80.684C494.839 80.684 494.633 80.712 494.413 80.768C494.197 80.824 493.987 80.908 493.783 81.02L494.167 80.384V80.768C494.167 80.892 494.195 81.024 494.251 81.164C494.311 81.304 494.391 81.442 494.491 81.578C494.591 81.71 494.709 81.832 494.845 81.944C494.981 82.052 495.129 82.14 495.289 82.208C495.449 82.272 495.613 82.304 495.781 82.304H497.017V83H496.033C495.721 83 495.429 82.95 495.157 82.85C494.885 82.75 494.639 82.618 494.419 82.454C494.199 82.286 494.009 82.104 493.849 81.908C493.693 81.708 493.573 81.51 493.489 81.314C493.405 81.114 493.363 80.932 493.363 80.768V80.426C493.535 80.33 493.717 80.25 493.909 80.186C494.105 80.122 494.299 80.074 494.491 80.042C494.687 80.006 494.867 79.988 495.031 79.988C495.199 79.988 495.379 80.006 495.571 80.042C495.763 80.074 495.955 80.122 496.147 80.186C496.343 80.25 496.527 80.33 496.699 80.426V80.768C496.699 80.932 496.657 81.114 496.573 81.314C496.489 81.51 496.367 81.708 496.207 81.908C496.051 82.104 495.863 82.286 495.643 82.454C495.423 82.618 495.177 82.75 494.905 82.85C494.633 82.95 494.341 83 494.029 83H493.009ZM493.009 83C492.985 83 492.967 82.992 492.955 82.976C492.939 82.96 492.927 82.938 492.919 82.91C492.907 82.878 492.899 82.84 492.895 82.796C492.891 82.752 492.889 82.704 492.889 82.652C492.889 82.58 492.893 82.52 492.901 82.472C492.909 82.42 492.923 82.38 492.943 82.352C492.959 82.32 492.981 82.304 493.009 82.304V83ZM497.017 83V82.304C497.041 82.304 497.061 82.312 497.077 82.328C497.093 82.344 497.105 82.368 497.113 82.4C497.121 82.432 497.127 82.47 497.131 82.514C497.135 82.554 497.137 82.6 497.137 82.652C497.137 82.704 497.135 82.752 497.131 82.796C497.127 82.84 497.121 82.878 497.113 82.91C497.105 82.938 497.093 82.96 497.077 82.976C497.061 82.992 497.041 83 497.017 83ZM498.769 83V82.304H499.519V83H498.769ZM499.519 83V82.304C499.539 82.304 499.557 82.312 499.573 82.328C499.589 82.344 499.601 82.368 499.609 82.4C499.617 82.432 499.623 82.47 499.627 82.514C499.635 82.554 499.639 82.6 499.639 82.652C499.639 82.704 499.635 82.752 499.627 82.796C499.623 82.84 499.617 82.878 499.609 82.91C499.601 82.938 499.589 82.96 499.573 82.976C499.561 82.992 499.543 83 499.519 83ZM497.017 83C496.993 83 496.975 82.992 496.963 82.976C496.947 82.96 496.935 82.938 496.927 82.91C496.915 82.878 496.907 82.84 496.903 82.796C496.899 82.752 496.897 82.704 496.897 82.652C496.897 82.58 496.901 82.52 496.909 82.472C496.917 82.42 496.931 82.38 496.951 82.352C496.967 82.32 496.989 82.304 497.017 82.304V83ZM497.017 83V82.304H498.439L497.971 82.694V79.988H498.769V83H497.017ZM497.443 79.436V78.752H498.217V79.436H497.443ZM498.535 79.436V78.752H499.309V79.436H498.535ZM500.197 83V78.758H501.001V83H500.197ZM499.519 83V82.304H500.197V83H499.519ZM499.519 83C499.495 83 499.477 82.992 499.465 82.976C499.449 82.96 499.437 82.938 499.429 82.91C499.417 82.878 499.409 82.84 499.405 82.796C499.401 82.752 499.399 82.704 499.399 82.652C499.399 82.58 499.403 82.52 499.411 82.472C499.419 82.42 499.433 82.38 499.453 82.352C499.469 82.32 499.491 82.304 499.519 82.304V83ZM501.963 83V78.758H502.761V83H501.963ZM508.39 83V82.304H509.02V83H508.39ZM506.662 84.488C506.314 84.488 506.002 84.424 505.726 84.296C505.454 84.172 505.24 83.998 505.084 83.774C504.928 83.55 504.85 83.296 504.85 83.012C504.85 82.932 504.856 82.826 504.868 82.694C504.88 82.562 504.896 82.414 504.916 82.25C504.94 82.086 504.964 81.92 504.988 81.752C505.016 81.58 505.042 81.414 505.066 81.254L505.858 81.362C505.814 81.63 505.776 81.876 505.744 82.1C505.716 82.32 505.694 82.508 505.678 82.664C505.662 82.82 505.654 82.934 505.654 83.006C505.654 83.166 505.694 83.304 505.774 83.42C505.854 83.536 505.968 83.626 506.116 83.69C506.268 83.758 506.45 83.792 506.662 83.792C506.882 83.792 507.06 83.76 507.196 83.696C507.332 83.632 507.43 83.544 507.49 83.432C507.554 83.32 507.586 83.194 507.586 83.054V78.758H508.39V83.054C508.39 83.342 508.314 83.594 508.162 83.81C508.014 84.026 507.81 84.192 507.55 84.308C507.29 84.428 506.994 84.488 506.662 84.488ZM509.02 83V82.304C509.044 82.304 509.062 82.312 509.074 82.328C509.09 82.344 509.102 82.368 509.11 82.4C509.122 82.432 509.13 82.47 509.134 82.514C509.138 82.554 509.14 82.6 509.14 82.652C509.14 82.704 509.138 82.752 509.134 82.796C509.13 82.84 509.122 82.878 509.11 82.91C509.102 82.938 509.09 82.96 509.074 82.976C509.062 82.992 509.044 83 509.02 83ZM510.456 83V82.304H511.086V83H510.456ZM509.022 83C508.998 83 508.98 82.992 508.968 82.976C508.952 82.96 508.94 82.938 508.932 82.91C508.92 82.878 508.912 82.84 508.908 82.796C508.904 82.752 508.902 82.704 508.902 82.652C508.902 82.58 508.906 82.52 508.914 82.472C508.922 82.42 508.936 82.38 508.956 82.352C508.972 82.32 508.994 82.304 509.022 82.304V83ZM509.022 83V82.304H510.12L509.652 82.694V79.988H510.456V83H509.022ZM511.086 83V82.304C511.11 82.304 511.13 82.312 511.146 82.328C511.162 82.344 511.174 82.368 511.182 82.4C511.19 82.432 511.196 82.47 511.2 82.514C511.204 82.554 511.206 82.6 511.206 82.652C511.206 82.704 511.204 82.752 511.2 82.796C511.196 82.84 511.19 82.878 511.182 82.91C511.174 82.938 511.162 82.96 511.146 82.976C511.13 82.992 511.11 83 511.086 83ZM509.652 84.278V83.594H510.456V84.278H509.652ZM514.445 83V82.304H515.075V83H514.445ZM511.085 83C511.061 83 511.043 82.992 511.031 82.976C511.015 82.96 511.003 82.938 510.995 82.91C510.983 82.878 510.975 82.84 510.971 82.796C510.967 82.752 510.965 82.704 510.965 82.652C510.965 82.58 510.969 82.52 510.977 82.472C510.985 82.42 510.999 82.38 511.019 82.352C511.035 82.32 511.057 82.304 511.085 82.304V83ZM511.085 83V82.304H513.887L513.641 82.514V80.51L513.845 80.684H513.089C512.913 80.684 512.775 80.706 512.675 80.75C512.575 80.794 512.505 80.876 512.465 80.996C512.425 81.112 512.405 81.278 512.405 81.494C512.405 81.73 512.425 81.906 512.465 82.022C512.505 82.134 512.575 82.21 512.675 82.25C512.775 82.286 512.913 82.304 513.089 82.304V82.928C512.749 82.928 512.469 82.88 512.249 82.784C512.029 82.688 511.865 82.536 511.757 82.328C511.653 82.116 511.601 81.838 511.601 81.494C511.601 81.166 511.653 80.89 511.757 80.666C511.865 80.442 512.029 80.274 512.249 80.162C512.469 80.046 512.749 79.988 513.089 79.988H514.445V83H511.085ZM515.075 83V82.304C515.099 82.304 515.119 82.312 515.135 82.328C515.151 82.344 515.163 82.368 515.171 82.4C515.179 82.432 515.185 82.47 515.189 82.514C515.193 82.554 515.195 82.6 515.195 82.652C515.195 82.704 515.193 82.752 515.189 82.796C515.185 82.84 515.179 82.878 515.171 82.91C515.163 82.938 515.151 82.96 515.135 82.976C515.119 82.992 515.099 83 515.075 83ZM512.243 79.436V78.752H513.017V79.436H512.243ZM513.335 79.436V78.752H514.109V79.436H513.335ZM516.827 83V82.304H517.577V83H516.827ZM517.577 83V82.304C517.597 82.304 517.615 82.312 517.631 82.328C517.647 82.344 517.659 82.368 517.667 82.4C517.675 82.432 517.681 82.47 517.685 82.514C517.693 82.554 517.697 82.6 517.697 82.652C517.697 82.704 517.693 82.752 517.685 82.796C517.681 82.84 517.675 82.878 517.667 82.91C517.659 82.938 517.647 82.96 517.631 82.976C517.619 82.992 517.601 83 517.577 83ZM515.075 83C515.051 83 515.033 82.992 515.021 82.976C515.005 82.96 514.993 82.938 514.985 82.91C514.973 82.878 514.965 82.84 514.961 82.796C514.957 82.752 514.955 82.704 514.955 82.652C514.955 82.58 514.959 82.52 514.967 82.472C514.975 82.42 514.989 82.38 515.009 82.352C515.025 82.32 515.047 82.304 515.075 82.304V83ZM515.075 83V82.304H516.497L516.029 82.694V79.988H516.827V83H515.075ZM515.501 79.436V78.752H516.275V79.436H515.501ZM516.593 79.436V78.752H517.367V79.436H516.593ZM522.611 83V82.304H523.247V83H522.611ZM517.577 83C517.553 83 517.535 82.992 517.523 82.976C517.507 82.96 517.495 82.938 517.487 82.91C517.475 82.878 517.467 82.84 517.463 82.796C517.459 82.752 517.457 82.704 517.457 82.652C517.457 82.58 517.461 82.52 517.469 82.472C517.477 82.42 517.491 82.38 517.511 82.352C517.527 82.32 517.549 82.304 517.577 82.304V83ZM521.105 83C520.941 83 520.777 82.97 520.613 82.91C520.453 82.846 520.305 82.752 520.169 82.628L520.661 82.118C520.741 82.182 520.815 82.23 520.883 82.262C520.955 82.29 521.029 82.304 521.105 82.304H522.227L521.813 82.682V81.35C521.813 81.286 521.805 81.19 521.789 81.062C521.777 80.93 521.757 80.782 521.729 80.618C521.705 80.45 521.675 80.28 521.639 80.108L522.431 79.988C522.459 80.132 522.485 80.294 522.509 80.474C522.537 80.65 522.561 80.818 522.581 80.978C522.601 81.134 522.611 81.258 522.611 81.35V83H521.105ZM517.577 83V82.304H518.453L518.273 82.49V80.6H519.077V83H517.577ZM519.077 83V82.304H519.563C519.691 82.304 519.789 82.286 519.857 82.25C519.925 82.21 519.971 82.132 519.995 82.016C520.023 81.896 520.037 81.718 520.037 81.482V80.3H520.841V81.482C520.841 81.838 520.795 82.128 520.703 82.352C520.615 82.576 520.477 82.74 520.289 82.844C520.101 82.948 519.859 83 519.563 83H519.077ZM523.247 83V82.304C523.267 82.304 523.285 82.312 523.301 82.328C523.317 82.344 523.329 82.368 523.337 82.4C523.345 82.432 523.351 82.47 523.355 82.514C523.363 82.554 523.367 82.6 523.367 82.652C523.367 82.704 523.363 82.752 523.355 82.796C523.351 82.84 523.345 82.878 523.337 82.91C523.329 82.938 523.317 82.96 523.301 82.976C523.285 82.992 523.267 83 523.247 83ZM526.795 83V82.304H527.431V83H526.795ZM523.249 83C523.225 83 523.207 82.992 523.195 82.976C523.179 82.96 523.167 82.938 523.159 82.91C523.147 82.878 523.139 82.84 523.135 82.796C523.131 82.752 523.129 82.704 523.129 82.652C523.129 82.58 523.133 82.52 523.141 82.472C523.149 82.42 523.163 82.38 523.183 82.352C523.199 82.32 523.221 82.304 523.249 82.304V83ZM523.249 83V82.304H526.363L525.997 82.616V81.512C525.997 81.296 525.973 81.128 525.925 81.008C525.877 80.884 525.793 80.798 525.673 80.75C525.557 80.698 525.395 80.672 525.187 80.672C525.023 80.672 524.861 80.684 524.701 80.708C524.545 80.728 524.423 80.756 524.335 80.792L524.833 80.324C524.809 80.416 524.785 80.532 524.761 80.672C524.741 80.812 524.723 80.962 524.707 81.122C524.691 81.278 524.683 81.432 524.683 81.584C524.683 81.724 524.689 81.87 524.701 82.022C524.717 82.174 524.733 82.308 524.749 82.424C524.769 82.54 524.785 82.62 524.797 82.664L524.035 82.874C524.019 82.818 523.999 82.726 523.975 82.598C523.951 82.47 523.929 82.318 523.909 82.142C523.893 81.966 523.885 81.78 523.885 81.584C523.885 81.384 523.895 81.192 523.915 81.008C523.935 80.82 523.957 80.652 523.981 80.504C524.009 80.352 524.035 80.23 524.059 80.138C524.155 80.102 524.305 80.066 524.509 80.03C524.713 79.994 524.939 79.976 525.187 79.976C525.547 79.976 525.845 80.026 526.081 80.126C526.321 80.226 526.499 80.388 526.615 80.612C526.735 80.836 526.795 81.138 526.795 81.518V83H523.249ZM527.431 83V82.304C527.451 82.304 527.469 82.312 527.485 82.328C527.501 82.344 527.513 82.368 527.521 82.4C527.529 82.432 527.535 82.47 527.539 82.514C527.547 82.554 527.551 82.6 527.551 82.652C527.551 82.704 527.547 82.752 527.539 82.796C527.535 82.84 527.529 82.878 527.521 82.91C527.513 82.938 527.501 82.96 527.485 82.976C527.469 82.992 527.451 83 527.431 83ZM528.111 83V78.758H528.915V83H528.111ZM527.433 83V82.304H528.111V83H527.433ZM527.433 83C527.409 83 527.391 82.992 527.379 82.976C527.363 82.96 527.351 82.938 527.343 82.91C527.331 82.878 527.323 82.84 527.319 82.796C527.315 82.752 527.313 82.704 527.313 82.652C527.313 82.58 527.317 82.52 527.325 82.472C527.333 82.42 527.347 82.38 527.367 82.352C527.383 82.32 527.405 82.304 527.433 82.304V83ZM529.877 83V78.758H530.675V83H529.877ZM532.764 83V82.304H534.942L534.396 82.778V81.77C534.396 81.486 534.366 81.266 534.306 81.11C534.25 80.954 534.154 80.844 534.018 80.78C533.886 80.716 533.704 80.684 533.472 80.684H532.986V79.988H533.472C533.84 79.988 534.152 80.048 534.408 80.168C534.668 80.288 534.864 80.48 534.996 80.744C535.132 81.004 535.2 81.346 535.2 81.77V83H532.764ZM536.041 83V78.758H536.839V83H536.041ZM538.846 84.488C538.698 84.488 538.542 84.476 538.378 84.452C538.218 84.432 538.046 84.404 537.862 84.368L537.982 83.726C538.182 83.75 538.352 83.768 538.492 83.78C538.632 83.792 538.75 83.798 538.846 83.798C539.134 83.798 539.342 83.746 539.47 83.642C539.598 83.538 539.662 83.382 539.662 83.174V80.54L539.86 80.684H539.11C538.946 80.684 538.814 80.704 538.714 80.744C538.614 80.78 538.54 80.858 538.492 80.978C538.448 81.094 538.426 81.272 538.426 81.512C538.426 81.74 538.446 81.912 538.486 82.028C538.53 82.14 538.602 82.214 538.702 82.25C538.802 82.286 538.938 82.304 539.11 82.304H539.662V83H539.11C538.77 83 538.49 82.946 538.27 82.838C538.05 82.73 537.886 82.566 537.778 82.346C537.674 82.126 537.622 81.848 537.622 81.512C537.622 81.176 537.674 80.896 537.778 80.672C537.886 80.444 538.05 80.274 538.27 80.162C538.49 80.046 538.77 79.988 539.11 79.988H540.466V83.174C540.466 83.446 540.398 83.68 540.262 83.876C540.13 84.076 539.942 84.228 539.698 84.332C539.458 84.436 539.174 84.488 538.846 84.488ZM541.108 84.488C541.056 84.488 541 84.486 540.94 84.482C540.88 84.478 540.818 84.472 540.754 84.464L540.784 83.78C540.848 83.784 540.908 83.788 540.964 83.792C541.024 83.796 541.068 83.798 541.096 83.798C541.252 83.798 541.376 83.736 541.468 83.612C541.564 83.488 541.612 83.314 541.612 83.09V79.988H542.416V83.09C542.416 83.362 542.36 83.604 542.248 83.816C542.14 84.028 541.988 84.192 541.792 84.308C541.596 84.428 541.368 84.488 541.108 84.488ZM545.854 83C545.514 83 545.234 82.946 545.014 82.838C544.794 82.73 544.63 82.566 544.522 82.346C544.418 82.126 544.366 81.848 544.366 81.512C544.366 81.176 544.418 80.896 544.522 80.672C544.63 80.444 544.794 80.274 545.014 80.162C545.234 80.046 545.514 79.988 545.854 79.988H547.21V82.622H546.406V80.51L546.604 80.684H545.854C545.69 80.684 545.558 80.704 545.458 80.744C545.358 80.78 545.284 80.858 545.236 80.978C545.192 81.094 545.17 81.272 545.17 81.512C545.17 81.74 545.19 81.912 545.23 82.028C545.274 82.14 545.346 82.214 545.446 82.25C545.546 82.286 545.682 82.304 545.854 82.304H547.84V83H545.854ZM547.84 83V82.304C547.864 82.304 547.882 82.312 547.894 82.328C547.91 82.344 547.922 82.368 547.93 82.4C547.942 82.432 547.95 82.47 547.954 82.514C547.958 82.554 547.96 82.6 547.96 82.652C547.96 82.704 547.958 82.752 547.954 82.796C547.95 82.84 547.942 82.878 547.93 82.91C547.922 82.938 547.91 82.96 547.894 82.976C547.882 82.992 547.864 83 547.84 83ZM544.96 79.436V78.752H545.734V79.436H544.96ZM546.052 79.436V78.752H546.826V79.436H546.052ZM552.875 83V82.304H553.511V83H552.875ZM547.841 83C547.817 83 547.799 82.992 547.787 82.976C547.771 82.96 547.759 82.938 547.751 82.91C547.739 82.878 547.731 82.84 547.727 82.796C547.723 82.752 547.721 82.704 547.721 82.652C547.721 82.58 547.725 82.52 547.733 82.472C547.741 82.42 547.755 82.38 547.775 82.352C547.791 82.32 547.813 82.304 547.841 82.304V83ZM551.369 83C551.205 83 551.041 82.97 550.877 82.91C550.717 82.846 550.569 82.752 550.433 82.628L550.925 82.118C551.005 82.182 551.079 82.23 551.147 82.262C551.219 82.29 551.293 82.304 551.369 82.304H552.491L552.077 82.682V81.35C552.077 81.286 552.069 81.19 552.053 81.062C552.041 80.93 552.021 80.782 551.993 80.618C551.969 80.45 551.939 80.28 551.903 80.108L552.695 79.988C552.723 80.132 552.749 80.294 552.773 80.474C552.801 80.65 552.825 80.818 552.845 80.978C552.865 81.134 552.875 81.258 552.875 81.35V83H551.369ZM547.841 83V82.304H548.717L548.537 82.49V80.6H549.341V83H547.841ZM549.341 83V82.304H549.827C549.955 82.304 550.053 82.286 550.121 82.25C550.189 82.21 550.235 82.132 550.259 82.016C550.287 81.896 550.301 81.718 550.301 81.482V80.3H551.105V81.482C551.105 81.838 551.059 82.128 550.967 82.352C550.879 82.576 550.741 82.74 550.553 82.844C550.365 82.948 550.123 83 549.827 83H549.341ZM553.511 83V82.304C553.531 82.304 553.549 82.312 553.565 82.328C553.581 82.344 553.593 82.368 553.601 82.4C553.609 82.432 553.615 82.47 553.619 82.514C553.627 82.554 553.631 82.6 553.631 82.652C553.631 82.704 553.627 82.752 553.619 82.796C553.615 82.84 553.609 82.878 553.601 82.91C553.593 82.938 553.581 82.96 553.565 82.976C553.549 82.992 553.531 83 553.511 83ZM557.041 83C556.877 83 556.713 82.97 556.549 82.91C556.389 82.846 556.241 82.752 556.105 82.628L556.597 82.118C556.677 82.182 556.751 82.23 556.819 82.262C556.891 82.29 556.965 82.304 557.041 82.304H558.163L557.749 82.682V81.35C557.749 81.286 557.741 81.19 557.725 81.062C557.713 80.93 557.693 80.782 557.665 80.618C557.641 80.45 557.611 80.28 557.575 80.108L558.367 79.988C558.395 80.132 558.421 80.294 558.445 80.474C558.473 80.65 558.497 80.818 558.517 80.978C558.537 81.134 558.547 81.258 558.547 81.35V83H557.041ZM553.513 83V82.304H554.389L554.209 82.49V80.6H555.013V83H553.513ZM555.013 83V82.304H555.499C555.627 82.304 555.725 82.286 555.793 82.25C555.861 82.21 555.907 82.132 555.931 82.016C555.959 81.896 555.973 81.718 555.973 81.482V80.3H556.777V81.482C556.777 81.838 556.731 82.128 556.639 82.352C556.551 82.576 556.413 82.74 556.225 82.844C556.037 82.948 555.795 83 555.499 83H555.013ZM553.513 83C553.489 83 553.471 82.992 553.459 82.976C553.443 82.96 553.431 82.938 553.423 82.91C553.411 82.878 553.403 82.84 553.399 82.796C553.395 82.752 553.393 82.704 553.393 82.652C553.393 82.58 553.397 82.52 553.405 82.472C553.413 82.42 553.427 82.38 553.447 82.352C553.463 82.32 553.485 82.304 553.513 82.304V83ZM562.052 83V82.304H562.682V83H562.052ZM560.432 84.488C560.284 84.488 560.128 84.476 559.964 84.452C559.804 84.432 559.632 84.404 559.448 84.368L559.568 83.726C559.768 83.75 559.938 83.768 560.078 83.78C560.218 83.792 560.336 83.798 560.432 83.798C560.72 83.798 560.928 83.746 561.056 83.642C561.184 83.538 561.248 83.382 561.248 83.174V80.54L561.446 80.684H560.696C560.532 80.684 560.4 80.704 560.3 80.744C560.2 80.78 560.126 80.858 560.078 80.978C560.034 81.094 560.012 81.272 560.012 81.512C560.012 81.74 560.032 81.912 560.072 82.028C560.116 82.14 560.188 82.214 560.288 82.25C560.388 82.286 560.524 82.304 560.696 82.304H561.248V83H560.696C560.356 83 560.076 82.946 559.856 82.838C559.636 82.73 559.472 82.566 559.364 82.346C559.26 82.126 559.208 81.848 559.208 81.512C559.208 81.176 559.26 80.896 559.364 80.672C559.472 80.444 559.636 80.274 559.856 80.162C560.076 80.046 560.356 79.988 560.696 79.988H562.052V83.174C562.052 83.446 561.984 83.68 561.848 83.876C561.716 84.076 561.528 84.228 561.284 84.332C561.044 84.436 560.76 84.488 560.432 84.488ZM562.682 83V82.304C562.706 82.304 562.724 82.312 562.736 82.328C562.752 82.344 562.764 82.368 562.772 82.4C562.784 82.432 562.792 82.47 562.796 82.514C562.8 82.554 562.802 82.6 562.802 82.652C562.802 82.704 562.8 82.752 562.796 82.796C562.792 82.84 562.784 82.878 562.772 82.91C562.764 82.938 562.752 82.96 562.736 82.976C562.724 82.992 562.706 83 562.682 83ZM560.378 79.394C560.302 79.302 560.244 79.214 560.204 79.13C560.164 79.046 560.144 78.956 560.144 78.86C560.144 78.724 560.18 78.602 560.252 78.494C560.324 78.382 560.418 78.296 560.534 78.236C560.65 78.172 560.778 78.14 560.918 78.14C560.994 78.14 561.072 78.15 561.152 78.17C561.232 78.19 561.3 78.22 561.356 78.26L561.152 78.626C561.116 78.606 561.08 78.594 561.044 78.59C561.012 78.582 560.978 78.578 560.942 78.578C560.846 78.578 560.772 78.604 560.72 78.656C560.668 78.704 560.642 78.77 560.642 78.854C560.642 78.902 560.652 78.948 560.672 78.992C560.692 79.036 560.722 79.084 560.762 79.136L560.378 79.394ZM560.012 79.442V79.004H561.464V79.442H560.012ZM562.683 83V82.304H565.797L565.431 82.616V81.512C565.431 81.296 565.407 81.128 565.359 81.008C565.311 80.884 565.227 80.798 565.107 80.75C564.991 80.698 564.829 80.672 564.621 80.672C564.457 80.672 564.295 80.684 564.135 80.708C563.979 80.728 563.857 80.756 563.769 80.792L564.267 80.324C564.243 80.416 564.219 80.532 564.195 80.672C564.175 80.812 564.157 80.962 564.141 81.122C564.125 81.278 564.117 81.432 564.117 81.584C564.117 81.724 564.123 81.87 564.135 82.022C564.151 82.174 564.167 82.308 564.183 82.424C564.203 82.54 564.219 82.62 564.231 82.664L563.469 82.874C563.453 82.818 563.433 82.726 563.409 82.598C563.385 82.47 563.363 82.318 563.343 82.142C563.327 81.966 563.319 81.78 563.319 81.584C563.319 81.384 563.329 81.192 563.349 81.008C563.369 80.82 563.391 80.652 563.415 80.504C563.443 80.352 563.469 80.23 563.493 80.138C563.589 80.102 563.739 80.066 563.943 80.03C564.147 79.994 564.373 79.976 564.621 79.976C564.981 79.976 565.279 80.026 565.515 80.126C565.755 80.226 565.933 80.388 566.049 80.612C566.169 80.836 566.229 81.138 566.229 81.518V83H562.683ZM562.683 83C562.659 83 562.641 82.992 562.629 82.976C562.613 82.96 562.601 82.938 562.593 82.91C562.581 82.878 562.573 82.84 562.569 82.796C562.565 82.752 562.563 82.704 562.563 82.652C562.563 82.58 562.567 82.52 562.575 82.472C562.583 82.42 562.597 82.38 562.617 82.352C562.633 82.32 562.655 82.304 562.683 82.304V83Z" fill="#184171"/>
<path d="M469.509 70.2246C510.902 71.8396 495.498 70.5117 498.249 35.6435C498.426 34.0146 468.443 34.0566 468.615 35.6435C469.397 36.5303 467.063 70.416 469.509 70.227V70.2246Z" fill="#F6921E"/>
<path d="M480.356 54.7504V61.7656C480.356 63.3292 479.973 63.7796 478.342 63.7796H477.717C476.083 63.7796 475.703 63.3292 475.703 61.7656V45.3712C475.703 42.454 476.954 41.2031 479.871 41.2031H489.145C490.708 41.2031 491.159 41.6535 491.159 43.2171V43.5299C491.159 45.1635 490.708 45.5439 489.145 45.5439H481.399C480.704 45.5439 480.356 45.8916 480.356 46.5847V50.405H487.754C489.318 50.405 489.768 50.7877 489.768 52.419V52.7317C489.768 54.2953 489.318 54.7457 487.754 54.7457H480.356V54.7504Z" fill="#184171" stroke="#F2F2F2" stroke-miterlimit="10"/>
<path d="M503.169 72.2556C544.086 69.0467 530.268 66.6336 527.573 33C486.655 36.2112 500.473 38.6243 503.169 72.2556Z" fill="#184171"/>
<path d="M514.881 41.2967C519.936 40.5849 522.835 42.739 523.537 47.7261C524.237 52.7133 522.041 55.5464 516.986 56.2582L511.827 56.984L512.585 62.3843C512.802 63.9315 512.487 64.4333 510.87 64.6596L510.251 64.746C508.634 64.9724 508.193 64.5803 507.976 63.0307L505.694 46.7973C505.287 43.9082 506.352 42.4963 509.241 42.0902L514.881 41.2967ZM511.36 46.1765C510.671 46.2722 510.375 46.6666 510.473 47.3527L511.222 52.6853L516.382 51.9595C518.55 51.6538 519.234 50.5406 518.93 48.3749C518.627 46.2092 517.654 45.2921 515.488 45.5978L511.362 46.1789L511.36 46.1765Z" fill="#F6921E" stroke="#F2F2F2" stroke-miterlimit="10"/>
<path d="M532.503 70.2288C573.469 72.7468 560.12 68.4341 562.134 34.7515C521.168 32.2357 534.517 36.5484 532.503 70.2288Z" fill="#F6921E"/>
<path d="M539.383 60.755C539.383 59.1214 539.834 58.706 541.397 59.1214C543.168 59.5741 544.905 59.8168 546.676 59.8168C549.456 59.8168 550.461 59.3291 550.461 57.9405C550.461 56.9324 549.906 56.3769 547.682 55.0934L543.236 52.4889C540.909 51.1354 539.729 49.189 539.729 46.6546C539.729 42.7643 542.16 40.8203 547.822 40.8203C549.386 40.8203 550.844 40.993 552.163 41.3757C553.829 41.8261 554.212 42.2439 554.212 43.8075V44.1552C554.212 45.8215 553.794 46.1692 552.163 45.7188C550.947 45.3361 549.523 45.1634 547.822 45.1634C545.46 45.1634 544.522 45.5461 544.522 46.7947C544.522 47.6278 544.94 48.0805 546.431 48.9487L551.052 51.6581C553.969 53.3594 555.255 54.993 555.255 57.9452C555.255 62.0082 552.72 64.1622 546.606 64.1622C544.695 64.1622 542.923 63.9545 541.36 63.5018C539.729 63.0514 539.381 62.6687 539.381 61.1051V60.7573L539.383 60.755Z" fill="#184171" stroke="#F2F2F2" stroke-miterlimit="10"/>
<defs>
<linearGradient id="paint0_linear_5790_30153" x1="570.019" y1="-3.50762e-06" x2="535.531" y2="393.58" gradientUnits="userSpaceOnUse">
<stop stop-color="#2151D6" stop-opacity="0.6"/>
<stop offset="1" stop-color="white" stop-opacity="0.3"/>
</linearGradient>
<linearGradient id="paint1_linear_5790_30153" x1="570.019" y1="-3.50762e-06" x2="535.531" y2="393.58" gradientUnits="userSpaceOnUse">
<stop stop-color="#2151D6" stop-opacity="0.6"/>
<stop offset="1" stop-color="white" stop-opacity="0.3"/>
</linearGradient>
</defs>
</svg>
